HIERARCHY
ROOT Hips
{
	OFFSET 0.000000 0.000000 0.000000
	CHANNELS 6 Xposition Yposition Zposition Xrotation Yrotation Zrotation
	JOINT Spine
	{
		OFFSET 0.000000 0.042231 0.063346
		CHANNELS 3 Xrotation Yrotation Zrotation
		JOINT Spine1
		{
			OFFSET 0.000000 0.014667 0.083179
			CHANNELS 3 Xrotation Yrotation Zrotation
			JOINT Spine2
			{
				OFFSET 0.000000 0.007361 0.084141
				CHANNELS 3 Xrotation Yrotation Zrotation
				JOINT Spine3
				{
					OFFSET 0.000000 0.000000 0.084462
					CHANNELS 3 Xrotation Yrotation Zrotation
					JOINT Neck
					{
						OFFSET 0.000000 -0.031673 0.221713
						CHANNELS 3 Xrotation Yrotation Zrotation
						JOINT Head
						{
							OFFSET 0.000000 -0.020167 0.114371
							CHANNELS 3 Xrotation Yrotation Zrotation
							End Site
							{
								OFFSET 0.000000 0.000000 0.000000
							}
						}
					}
					JOINT RightShoulder
					{
						OFFSET -0.029161 -0.048602 0.157471
						CHANNELS 3 Xrotation Yrotation Zrotation
						JOINT RightArm
						{
							OFFSET -0.144834 0.000000 0.000000
							CHANNELS 3 Xrotation Yrotation Zrotation
							JOINT RightForeArm
							{
								OFFSET -0.274949 0.000000 0.000000
								CHANNELS 3 Xrotation Yrotation Zrotation
								JOINT RightHand
								{
									OFFSET -0.254725 0.000000 0.000000
									CHANNELS 3 Xrotation Yrotation Zrotation
									JOINT RightHandEnd
									{
										OFFSET -0.068160 0.000000 0.000000
										CHANNELS 3 Xrotation Yrotation Zrotation
										End Site
										{
											OFFSET 0.000000 0.000000 0.000000
										}
									}
									JOINT RightHandThumb1
									{
										OFFSET -0.027264 -0.045440 -0.018176
										CHANNELS 3 Xrotation Yrotation Zrotation
										End Site
										{
											OFFSET 0.000000 0.000000 0.000000
										}
									}
								}
							}
						}
					}
					JOINT LeftShoulder
					{
						OFFSET 0.029161 -0.048602 0.157471
						CHANNELS 3 Xrotation Yrotation Zrotation
						JOINT LeftArm
						{
							OFFSET 0.144834 0.000000 0.000000
							CHANNELS 3 Xrotation Yrotation Zrotation
							JOINT LeftForeArm
							{
								OFFSET 0.274949 0.000000 0.000000
								CHANNELS 3 Xrotation Yrotation Zrotation
								JOINT LeftHand
								{
									OFFSET 0.254725 0.000000 0.000000
									CHANNELS 3 Xrotation Yrotation Zrotation
									JOINT LeftHandEnd
									{
										OFFSET 0.068160 0.000000 0.000000
										CHANNELS 3 Xrotation Yrotation Zrotation
										End Site
										{
											OFFSET 0.000000 0.000000 0.000000
										}
									}
									JOINT LeftHandThumb1
									{
										OFFSET 0.027264 -0.045440 -0.018176
										CHANNELS 3 Xrotation Yrotation Zrotation
										End Site
										{
											OFFSET 0.000000 0.000000 0.000000
										}
									}
								}
							}
						}
					}
				}
			}
		}
	}
	JOINT RightUpLeg
	{
		OFFSET -0.086512 0.000000 -0.025273
		CHANNELS 3 Xrotation Yrotation Zrotation
		JOINT RightLeg
		{
			OFFSET 0.000000 0.000000 -0.433119
			CHANNELS 3 Xrotation Yrotation Zrotation
			JOINT RightFoot
			{
				OFFSET 0.000000 0.000000 -0.404688
				CHANNELS 3 Xrotation Yrotation Zrotation
				JOINT RightToeBase
				{
					OFFSET 0.000000 -0.126496 -0.046041
					CHANNELS 3 Xrotation Yrotation Zrotation
					End Site
					{
						OFFSET 0.000000 0.000000 0.000000
					}
				}
			}
		}
	}
	JOINT LeftUpLeg
	{
		OFFSET 0.086512 0.000000 -0.025273
		CHANNELS 3 Xrotation Yrotation Zrotation
		JOINT LeftLeg
		{
			OFFSET 0.000000 0.000000 -0.433119
			CHANNELS 3 Xrotation Yrotation Zrotation
			JOINT LeftFoot
			{
				OFFSET 0.000000 0.000000 -0.404688
				CHANNELS 3 Xrotation Yrotation Zrotation
				JOINT LeftToeBase
				{
					OFFSET 0.000000 -0.126496 -0.046041
					CHANNELS 3 Xrotation Yrotation Zrotation
					End Site
					{
						OFFSET 0.000000 0.000000 0.000000
					}
				}
			}
		}
	}
}
MOTION
Frames: 9
Frame Time: 0.033333
0.226865 -3.043149 0.889508 -2.438000 0.742500 -179.113300 -2.906600 1.281900 -0.208200 -1.515200 0.134100 -0.027100 -1.206500 -0.634100 -0.604900 -0.210800 0.279800 -0.113700 3.496300 -0.733000 -5.789600 -1.443200 -1.830900 -9.329800 -2.328800 14.605100 0.896600 -16.778100 -15.616400 -5.338800 0.000000 0.000000 16.177100 -10.230500 21.593200 3.862400 0.000000 0.000000 0.000000 0.000000 0.000000 0.000000 1.246600 -15.009900 0.268400 -8.525200 15.318600 -7.652500 0.000000 0.000000 -13.445200 -13.505200 -26.612400 -3.328100 0.000000 0.000000 0.000000 0.000000 0.000000 0.000000 -4.036100 0.990700 -35.334300 2.281300 0.000000 0.000000 -8.432100 0.265000 1.404200 4.174300 0.000000 0.000000 -0.205600 1.954900 26.226400 -3.630900 0.000000 0.000000 -4.059400 12.147300 14.497000 -1.124400 0.000000 0.000000 
0.226784 -3.042760 0.889503 -2.419100 0.735400 -179.138800 -2.912100 1.270900 -0.207100 -1.518100 0.145000 -0.026700 -1.221100 -0.642300 -0.603500 -0.219000 0.284600 -0.121300 3.503900 -0.751000 -5.751800 -1.425200 -1.815600 -9.306800 -2.323100 14.549600 0.777700 -16.698700 -15.639900 -5.125700 0.000000 0.000000 16.094300 -10.277400 21.720500 3.789400 0.000000 0.000000 0.000000 0.000000 0.000000 0.000000 1.261500 -14.983600 0.335200 -8.477700 15.315900 -7.699000 0.000000 0.000000 -13.420600 -13.436700 -26.553400 -3.280300 0.000000 0.000000 0.000000 0.000000 0.000000 0.000000 -3.995300 0.984500 -35.321800 2.280000 0.000000 0.000000 -8.446400 0.265300 1.409300 4.156700 0.000000 0.000000 -0.161800 1.951200 26.194800 -3.626400 0.000000 0.000000 -4.093700 12.108200 14.547000 -1.198100 0.000000 0.000000 
0.226662 -3.042211 0.889508 -2.401600 0.728900 -179.179300 -2.937900 1.263700 -0.203300 -1.538400 0.144500 -0.023600 -1.211200 -0.645400 -0.583900 -0.224700 0.282600 -0.124200 3.493400 -0.756200 -5.675400 -1.399000 -1.799400 -9.238100 -2.332600 14.488400 0.698800 -16.558300 -15.630300 -4.987600 0.000000 0.000000 16.007800 -10.410400 21.881300 3.803700 0.000000 0.000000 0.000000 0.000000 0.000000 0.000000 1.272400 -14.920600 0.422000 -8.368300 15.301700 -7.795100 0.000000 0.000000 -13.367500 -13.357000 -26.456200 -3.233700 0.000000 0.000000 0.000000 0.000000 0.000000 0.000000 -3.949600 0.979600 -35.273500 2.278900 0.000000 0.000000 -8.462200 0.295000 1.395600 4.128800 0.000000 0.000000 -0.115600 1.946500 26.165100 -3.604400 0.000000 0.000000 -4.152100 12.081900 14.614500 -1.263700 0.000000 0.000000 
0.226550 -3.041701 0.889528 -2.366700 0.723400 -179.221500 -2.951100 1.256000 -0.193900 -1.554400 0.132700 -0.025700 -1.188100 -0.638100 -0.534000 -0.221000 0.273600 -0.122700 3.444500 -0.752900 -5.566500 -1.383900 -1.770600 -9.125200 -2.339000 14.454700 0.658900 -16.494300 -15.601300 -4.981100 0.000000 0.000000 15.951700 -10.524100 21.984400 3.857300 0.000000 0.000000 0.000000 0.000000 0.000000 0.000000 1.266300 -14.847700 0.495900 -8.215300 15.301900 -7.926900 0.000000 0.000000 -13.298300 -13.332800 -26.392900 -3.234100 0.000000 0.000000 0.000000 0.000000 0.000000 0.000000 -3.886500 0.974000 -35.200000 2.274500 0.000000 0.000000 -8.480100 0.324400 1.363400 4.142600 0.000000 0.000000 -0.051600 1.941700 26.156000 -3.583200 0.000000 0.000000 -4.206900 12.085900 14.666400 -1.275800 0.000000 0.000000 
0.226466 -3.041368 0.889549 -2.346800 0.719100 -179.249000 -2.970900 1.247700 -0.188500 -1.565200 0.122200 -0.019600 -1.156000 -0.631200 -0.489600 -0.217000 0.264300 -0.115000 3.390700 -0.756000 -5.453700 -1.383800 -1.716600 -8.998800 -2.337400 14.452300 0.642500 -16.552300 -15.582800 -5.053000 0.000000 0.000000 15.920100 -10.524800 21.993900 3.847500 0.000000 0.000000 0.000000 0.000000 0.000000 0.000000 1.246000 -14.782100 0.517300 -8.083400 15.330000 -8.005700 0.000000 0.000000 -13.259000 -13.348300 -26.384200 -3.274000 0.000000 0.000000 0.000000 0.000000 0.000000 0.000000 -3.851600 0.973200 -35.138600 2.282500 0.000000 0.000000 -8.504400 0.324300 1.330900 4.189300 0.000000 0.000000 -0.015400 1.937100 26.166200 -3.561100 0.000000 0.000000 -4.242300 12.092200 14.683100 -1.264900 0.000000 0.000000 
0.226411 -3.041099 0.889556 -2.322900 0.713400 -179.255300 -2.976700 1.239700 -0.186700 -1.576100 0.113200 -0.018600 -1.141600 -0.622500 -0.457400 -0.205900 0.258400 -0.113800 3.384200 -0.773400 -5.362000 -1.393400 -1.638100 -8.889400 -2.314600 14.471900 0.631400 -16.604400 -15.603200 -5.083500 0.000000 0.000000 15.851400 -10.493700 21.972200 3.801200 0.000000 0.000000 0.000000 0.000000 0.000000 0.000000 1.240700 -14.732000 0.508100 -7.998800 15.379500 -8.021200 0.000000 0.000000 -13.252100 -13.339800 -26.373700 -3.305800 0.000000 0.000000 0.000000 0.000000 0.000000 0.000000 -3.814900 0.972700 -35.101700 2.294100 0.000000 0.000000 -8.524700 0.297400 1.299600 4.219700 0.000000 0.000000 0.020600 1.932200 26.180100 -3.546000 0.000000 0.000000 -4.259100 12.079800 14.672600 -1.278600 0.000000 0.000000 
0.226377 -3.040885 0.889554 -2.314800 0.709400 -179.240500 -2.998100 1.237000 -0.187000 -1.592700 0.109000 -0.018900 -1.125900 -0.615000 -0.442400 -0.192600 0.255500 -0.112700 3.415400 -0.791000 -5.298000 -1.401600 -1.561300 -8.797100 -2.286400 14.496500 0.628200 -16.555600 -15.643600 -5.060900 0.000000 0.000000 15.748800 -10.534700 21.962900 3.801500 0.000000 0.000000 0.000000 0.000000 0.000000 0.000000 1.253400 -14.688200 0.494600 -7.930000 15.423500 -8.034600 0.000000 0.000000 -13.237100 -13.314300 -26.336300 -3.317400 0.000000 0.000000 0.000000 0.000000 0.000000 0.000000 -3.797800 0.975700 -35.079600 2.310700 0.000000 0.000000 -8.539900 0.274800 1.264400 4.237700 0.000000 0.000000 0.035300 1.929100 26.181500 -3.534300 0.000000 0.000000 -4.265200 12.053000 14.655400 -1.300600 0.000000 0.000000 
0.226375 -3.040764 0.889561 -2.310200 0.708000 -179.210800 -3.016200 1.238700 -0.187300 -1.607300 0.109600 -0.018000 -1.105300 -0.606700 -0.432500 -0.183600 0.251000 -0.109800 3.429700 -0.795900 -5.242200 -1.420000 -1.502800 -8.706200 -2.266300 14.527900 0.618400 -16.486600 -15.692000 -5.034000 0.000000 0.000000 15.673700 -10.595600 21.958300 3.833400 0.000000 0.000000 0.000000 0.000000 0.000000 0.000000 1.261300 -14.647900 0.484000 -7.857900 15.450400 -8.076300 0.000000 0.000000 -13.199300 -13.312300 -26.306000 -3.316400 0.000000 0.000000 0.000000 0.000000 0.000000 0.000000 -3.787800 0.979300 -35.068200 2.325800 0.000000 0.000000 -8.557900 0.271400 1.228800 4.274600 0.000000 0.000000 0.045000 1.928800 26.174600 -3.533900 0.000000 0.000000 -4.261000 12.034800 14.634300 -1.296000 0.000000 0.000000 
0.226411 -3.040746 0.889566 -2.297500 0.703100 -179.171000 -3.012100 1.241300 -0.186900 -1.608500 0.108400 -0.019000 -1.092300 -0.595000 -0.427600 -0.184500 0.247900 -0.110100 3.411300 -0.801400 -5.183100 -1.460300 -1.454400 -8.609700 -2.261000 14.548800 0.603000 -16.479200 -15.726800 -5.022100 0.000000 0.000000 15.657600 -10.593600 21.955800 3.844900 0.000000 0.000000 0.000000 0.000000 0.000000 0.000000 1.265200 -14.623000 0.481000 -7.812300 15.472300 -8.112300 0.000000 0.000000 -13.168200 -13.334900 -26.316000 -3.319400 0.000000 0.000000 0.000000 0.000000 0.000000 0.000000 -3.772300 0.975000 -35.073100 2.334400 0.000000 0.000000 -8.575200 0.279300 1.195200 4.296500 0.000000 0.000000 0.061500 1.924200 26.164300 -3.545400 0.000000 0.000000 -4.249700 12.042800 14.606100 -1.285300 0.000000 0.000000 
